<svg xmlns="http://www.w3.org/2000/svg" viewBox="0 0 100 125" x="0px" y="0px"><defs></defs><path fill="#f32853" d="M26.53,47.12A20.52,20.52,0,1,0,6,26.6,20.53,20.53,0,0,0,26.53,47.12Zm0-29.31a8.79,8.79,0,1,1-8.8,8.79A8.8,8.8,0,0,1,26.53,17.81Z"/><path fill="#f32853" d="M73.47,53A20.47,20.47,0,1,0,94,73.44,20.5,20.5,0,0,0,73.47,53Zm0,29.23a8.77,8.77,0,1,1,8.8-8.77A8.78,8.78,0,0,1,73.47,82.21Z"/><path  fill="grey" d="M65.49,26.61,54.6,37.49a5.63,5.63,0,0,0,8,8L73.46,34.57,84.34,45.44a5.64,5.64,0,1,0,8-8L81.44,26.6,92.33,15.72a5.63,5.63,0,0,0-8-8L73.48,18.64l-11-11a5.64,5.64,0,0,0-8,8Z"/><path fill="grey" d="M34.51,73.43,45.4,62.58a5.63,5.63,0,0,0-8-7.94L26.54,65.49,15.66,54.65a5.64,5.64,0,1,0-8,8L18.56,73.45,7.67,84.3a5.63,5.63,0,0,0,8,7.94L26.52,81.39l11,10.94a5.67,5.67,0,0,0,8,0,5.61,5.61,0,0,0,0-8Z"/></svg>